<svg id="visual" viewBox="0 0 1745 300" width="1745" height="300" xmlns="http://www.w3.org/2000/svg" xmlns:xlink="http://www.w3.org/1999/xlink" version="1.1"><path d="M0 46L76 46L76 55L152 55L152 55L228 55L228 58L303 58L303 49L379 49L379 52L455 52L455 49L531 49L531 61L607 61L607 43L683 43L683 49L759 49L759 58L835 58L835 55L910 55L910 52L986 52L986 43L1062 43L1062 49L1138 49L1138 46L1214 46L1214 49L1290 49L1290 52L1366 52L1366 49L1442 49L1442 64L1517 64L1517 61L1593 61L1593 43L1669 43L1669 58L1745 58L1745 61L1745 0L1745 0L1669 0L1669 0L1593 0L1593 0L1517 0L1517 0L1442 0L1442 0L1366 0L1366 0L1290 0L1290 0L1214 0L1214 0L1138 0L1138 0L1062 0L1062 0L986 0L986 0L910 0L910 0L835 0L835 0L759 0L759 0L683 0L683 0L607 0L607 0L531 0L531 0L455 0L455 0L379 0L379 0L303 0L303 0L228 0L228 0L152 0L152 0L76 0L76 0L0 0Z" fill="#f3ddd0"></path><path d="M0 145L76 145L76 127L152 127L152 136L228 136L228 130L303 130L303 133L379 133L379 136L455 136L455 115L531 115L531 133L607 133L607 124L683 124L683 115L759 115L759 124L835 124L835 121L910 121L910 130L986 130L986 133L1062 133L1062 139L1138 139L1138 136L1214 136L1214 145L1290 145L1290 133L1366 133L1366 124L1442 124L1442 157L1517 157L1517 139L1593 139L1593 109L1669 109L1669 136L1745 136L1745 157L1745 59L1745 56L1669 56L1669 41L1593 41L1593 59L1517 59L1517 62L1442 62L1442 47L1366 47L1366 50L1290 50L1290 47L1214 47L1214 44L1138 44L1138 47L1062 47L1062 41L986 41L986 50L910 50L910 53L835 53L835 56L759 56L759 47L683 47L683 41L607 41L607 59L531 59L531 47L455 47L455 50L379 50L379 47L303 47L303 56L228 56L228 53L152 53L152 53L76 53L76 44L0 44Z" fill="#ecc1b4"></path><path d="M0 184L76 184L76 175L152 175L152 187L228 187L228 175L303 175L303 172L379 172L379 172L455 172L455 163L531 163L531 169L607 169L607 166L683 166L683 160L759 160L759 166L835 166L835 172L910 172L910 178L986 178L986 181L1062 181L1062 181L1138 181L1138 175L1214 175L1214 193L1290 193L1290 181L1366 181L1366 163L1442 163L1442 199L1517 199L1517 187L1593 187L1593 154L1669 154L1669 184L1745 184L1745 199L1745 155L1745 134L1669 134L1669 107L1593 107L1593 137L1517 137L1517 155L1442 155L1442 122L1366 122L1366 131L1290 131L1290 143L1214 143L1214 134L1138 134L1138 137L1062 137L1062 131L986 131L986 128L910 128L910 119L835 119L835 122L759 122L759 113L683 113L683 122L607 122L607 131L531 131L531 113L455 113L455 134L379 134L379 131L303 131L303 128L228 128L228 134L152 134L152 125L76 125L76 143L0 143Z" fill="#e5a5a1"></path><path d="M0 268L76 268L76 268L152 268L152 271L228 271L228 262L303 262L303 268L379 268L379 262L455 262L455 259L531 259L531 268L607 268L607 259L683 259L683 259L759 259L759 268L835 268L835 271L910 271L910 268L986 268L986 265L1062 265L1062 265L1138 265L1138 265L1214 265L1214 262L1290 262L1290 259L1366 259L1366 268L1442 268L1442 271L1517 271L1517 259L1593 259L1593 259L1669 259L1669 262L1745 262L1745 268L1745 197L1745 182L1669 182L1669 152L1593 152L1593 185L1517 185L1517 197L1442 197L1442 161L1366 161L1366 179L1290 179L1290 191L1214 191L1214 173L1138 173L1138 179L1062 179L1062 179L986 179L986 176L910 176L910 170L835 170L835 164L759 164L759 158L683 158L683 164L607 164L607 167L531 167L531 161L455 161L455 170L379 170L379 170L303 170L303 173L228 173L228 185L152 185L152 173L76 173L76 182L0 182Z" fill="#da8997"></path><path d="M0 301L76 301L76 301L152 301L152 301L228 301L228 301L303 301L303 301L379 301L379 301L455 301L455 301L531 301L531 301L607 301L607 301L683 301L683 301L759 301L759 301L835 301L835 301L910 301L910 301L986 301L986 301L1062 301L1062 301L1138 301L1138 301L1214 301L1214 301L1290 301L1290 301L1366 301L1366 301L1442 301L1442 301L1517 301L1517 301L1593 301L1593 301L1669 301L1669 301L1745 301L1745 301L1745 266L1745 260L1669 260L1669 257L1593 257L1593 257L1517 257L1517 269L1442 269L1442 266L1366 266L1366 257L1290 257L1290 260L1214 260L1214 263L1138 263L1138 263L1062 263L1062 263L986 263L986 266L910 266L910 269L835 269L835 266L759 266L759 257L683 257L683 257L607 257L607 266L531 266L531 257L455 257L455 260L379 260L379 266L303 266L303 260L228 260L228 269L152 269L152 266L76 266L76 266L0 266Z" fill="#c96e95"></path></svg>